<?xml version="1.0" standalone="no"?>
<!DOCTYPE svg PUBLIC "-//W3C//DTD SVG 20010904//EN"
 "http://www.w3.org/TR/2001/REC-SVG-20010904/DTD/svg10.dtd">
<svg version="1.0" xmlns="http://www.w3.org/2000/svg"
 width="1280.000000pt" height="1280.000000pt" viewBox="0 0 1280.000000 1280.000000"
 preserveAspectRatio="xMidYMid meet">
<metadata>
Created by potrace 1.14, written by Peter Selinger 2001-2017
</metadata>
<g transform="translate(0.000000,1280.000000) scale(0.100000,-0.100000)"
fill="#000000" stroke="none">
<path d="M0 6400 l0 -6400 2533 0 c2497 0 2532 1 2557 20 33 26 53 26 45 0 -7
-23 16 -27 61 -10 19 8 30 8 38 0 16 -16 3148 -14 3165 2 11 10 13 10 7 1 -10
-17 55 -17 73 -1 11 10 12 10 7 1 -6 -10 198 -13 969 -13 754 0 975 3 975 12
0 9 3 9 12 0 19 -19 65 -14 82 9 l14 21 18 -21 18 -21 1113 0 1113 0 0 1824 0
1823 -47 6 c-27 3 -203 23 -393 46 -190 23 -369 44 -398 47 -29 4 -55 10 -57
14 -10 16 37 21 138 15 364 -22 560 -36 566 -39 4 -3 48 -8 99 -11 l92 -6 0
195 0 195 -32 5 c-18 3 -150 17 -293 31 -143 15 -278 30 -300 35 -22 5 -53 11
-70 12 l-30 3 3 215 c1 118 7 357 12 530 10 326 14 423 30 820 6 129 10 247
10 261 0 14 9 36 20 49 11 12 17 27 13 33 -4 6 -12 2 -21 -9 -14 -19 -14 -18
-8 1 3 11 6 50 7 88 1 42 7 71 16 78 10 9 13 5 13 -24 0 -19 6 -38 13 -40 9
-4 9 -8 1 -14 -9 -6 -8 -11 1 -20 10 -10 14 -9 19 2 3 8 11 15 18 15 9 0 8 -3
-2 -10 -10 -6 -11 -10 -2 -10 6 0 12 -4 12 -10 0 -5 -9 -10 -20 -10 -11 0 -20
-4 -20 -10 0 -5 7 -10 15 -10 21 0 21 -105 0 -127 -9 -8 -13 -18 -10 -21 3 -4
10 0 15 8 8 12 10 11 10 -6 0 -12 -6 -24 -14 -27 -9 -4 -13 -17 -11 -39 5 -47
7 -48 16 -3 10 52 -4 -588 -30 -1380 -5 -138 -5 -245 1 -251 6 -8 70 -12 201
-12 109 0 183 4 172 8 -11 5 -37 9 -57 9 -42 1 -179 28 -187 38 -6 6 270 -3
407 -13 l82 -7 0 45 0 45 -158 17 c-182 20 -242 35 -253 62 -7 18 -4 351 6
614 15 407 25 675 30 810 17 494 27 756 36 925 6 105 12 269 14 365 15 634 44
1264 60 1291 4 5 27 9 53 9 26 0 84 3 130 7 l82 6 0 483 0 484 -37 0 c-21 0
-144 -7 -273 -15 -129 -8 -285 -18 -346 -21 l-112 -7 -15 30 c-13 24 -14 42
-6 94 5 35 12 156 15 269 3 113 9 315 14 450 14 395 21 714 25 1210 3 256 7
557 11 669 13 420 5 661 -21 661 -20 0 -22 -31 -50 -1010 -2 -41 -6 -106 -9
-145 -4 -38 -9 -180 -12 -315 -3 -135 -7 -328 -9 -430 -2 -102 -6 -214 -9
-250 -7 -72 -10 -200 -21 -780 -4 -217 -12 -403 -17 -413 -17 -34 -54 -48
-144 -53 -49 -4 -91 -8 -94 -11 -2 -2 -8 -34 -12 -71 -5 -37 -12 -89 -16 -117
-8 -55 -30 -99 -38 -77 -8 17 -41 15 -48 -3 -3 -8 -14 -15 -24 -15 -10 0 -23
-5 -28 -10 -6 -6 -19 -8 -29 -4 -15 6 -17 16 -12 66 3 32 2 58 -1 58 -4 0 -7
19 -8 43 -1 69 -8 117 -17 117 -4 0 -5 5 -2 10 3 6 -1 10 -10 10 -20 0 -35 39
-24 66 5 15 2 29 -8 44 -9 13 -12 20 -6 17 6 -4 17 1 24 10 11 13 11 17 2 20
-15 5 -18 53 -3 53 9 0 13 47 10 120 0 14 -2 53 -3 87 -1 34 -5 65 -9 69 -14
13 -9 43 10 61 19 19 47 101 38 111 -3 3 -6 -2 -6 -12 0 -9 -4 -14 -10 -11
-13 8 -13 45 1 45 5 0 7 5 4 10 -3 6 -3 16 2 23 6 10 15 199 13 270 -1 9 -1
33 0 52 1 134 17 271 35 310 20 41 22 90 5 110 -12 14 -11 20 3 45 16 26 16
30 1 38 -14 8 -14 14 0 73 9 35 17 91 18 124 1 33 7 63 12 68 7 4 6 10 -4 17
-11 7 -12 12 -3 18 6 4 12 28 12 52 0 130 10 300 20 338 7 24 12 64 12 90 0
26 1 84 3 130 1 53 -2 82 -8 82 -6 1 -1 6 11 13 20 12 21 14 6 52 -24 64 -26
91 -9 116 9 15 12 29 6 38 -4 8 -5 24 -1 35 12 32 4 158 -11 168 -10 8 -10 11
0 15 14 6 16 49 2 58 -15 9 -12 63 5 89 9 13 15 39 14 57 -1 19 2 54 6 79 13
86 13 139 -2 145 -8 3 -62 5 -119 5 -83 0 -104 -3 -104 -14 0 -19 27 -46 46
-46 17 0 20 -65 4 -75 -6 -4 -8 -16 -4 -28 7 -23 6 -114 -2 -212 -3 -33 -6
-90 -8 -126 -2 -36 -6 -71 -10 -78 -4 -7 -9 -62 -11 -124 -6 -215 -17 -316
-37 -328 -6 -4 -12 -57 -14 -125 -10 -385 -16 -563 -19 -594 -2 -19 -6 -84 -9
-145 -4 -60 -9 -137 -12 -170 -4 -33 -8 -125 -9 -205 -3 -198 -15 -388 -25
-414 -4 -12 -8 -51 -8 -86 0 -36 -5 -85 -9 -110 -5 -25 -8 -72 -7 -105 1 -33
-3 -89 -8 -124 -5 -36 -11 -125 -14 -200 -3 -74 -7 -138 -10 -142 -5 -9 -11
-78 -18 -211 -3 -48 -10 -96 -15 -107 -9 -16 -52 -38 -93 -47 -5 -1 -10 -3
-13 -4 -3 -1 -9 -3 -14 -4 -5 0 -13 -4 -17 -8 -4 -5 -24 -8 -45 -8 -25 0 -39
-5 -43 -16 -3 -9 -12 -14 -20 -11 -8 3 -24 -2 -37 -10 -12 -9 -19 -11 -15 -5
4 7 2 12 -3 12 -6 0 -11 -5 -11 -11 0 -5 -4 -7 -10 -4 -5 3 -10 2 -10 -4 0 -5
-15 -13 -32 -17 -30 -7 -44 -9 -100 -13 -10 0 -18 -8 -18 -16 0 -11 -8 -13
-30 -8 -25 4 -30 2 -30 -13 0 -16 -2 -17 -10 -4 -7 10 -13 11 -17 4 -5 -5 -28
-10 -53 -9 -25 0 -56 -5 -70 -11 -34 -16 -119 -23 -123 -11 -4 12 -77 -13 -77
-26 0 -4 -8 -6 -19 -2 -13 4 -26 -3 -43 -23 -20 -24 -26 -26 -36 -15 -8 8 -9
13 -2 13 5 0 10 7 10 15 0 8 -5 14 -11 13 -18 -4 -29 49 -31 145 -1 48 -6 87
-11 87 -5 0 -6 7 -3 16 4 10 2 13 -6 8 -7 -5 -9 -2 -5 9 5 13 0 15 -29 10 -19
-3 -45 -1 -57 5 -36 17 -66 21 -72 8 -3 -8 -7 -8 -11 2 -8 18 -37 15 -61 -8
-18 -16 -22 -17 -27 -5 -8 21 -29 19 -49 -5 -18 -21 -37 -26 -37 -10 0 6 5 10
10 10 6 0 10 5 10 11 0 6 -15 1 -34 -10 -18 -12 -42 -20 -52 -19 -11 1 -34 -4
-52 -11 -27 -11 -33 -18 -29 -36 3 -18 0 -22 -11 -17 -11 4 -14 1 -9 -11 7
-18 -1 -21 -28 -11 -13 6 -14 9 -3 16 16 12 -86 3 -105 -9 -6 -4 -23 -9 -37
-11 -14 -2 -47 -9 -75 -17 -27 -8 -71 -16 -97 -18 -25 -3 -51 -8 -57 -12 -7
-3 -26 -8 -44 -10 -18 -3 -52 -9 -77 -14 -25 -6 -75 -13 -112 -15 -36 -3 -78
-10 -93 -16 -36 -14 -228 -13 -259 1 -20 9 -27 22 -32 58 -4 25 -11 54 -16 64
-6 12 -6 23 2 32 7 8 8 19 4 26 -4 8 -11 2 -20 -17 -7 -16 -13 -24 -13 -18 -1
7 -10 14 -21 17 -15 4 -19 12 -16 35 1 16 7 35 11 42 6 10 2 11 -19 6 -23 -6
-26 -4 -27 21 0 16 -3 22 -6 15 -4 -10 -9 -7 -17 10 -15 29 -40 30 -44 1 -2
-13 -9 -23 -17 -23 -7 0 -16 -13 -20 -30 -5 -23 -11 -29 -28 -27 -15 1 -22 -3
-21 -14 1 -19 -66 -25 -97 -8 -14 7 -45 6 -109 -6 -106 -18 -153 -20 -130 -5
21 13 6 12 -25 -2 -14 -6 -25 -19 -25 -29 0 -10 -5 -21 -11 -24 -6 -4 -14 -17
-19 -29 -8 -20 -9 -20 -10 4 l-1 25 -10 -23 c-5 -14 -13 -20 -20 -16 -12 7
-11 2 8 -58 4 -14 0 -18 -19 -18 -14 0 -33 -9 -43 -20 -10 -11 -13 -20 -7 -20
6 0 12 6 14 12 3 7 7 2 10 -10 6 -21 3 -22 -43 -22 -43 0 -49 -3 -49 -21 0
-11 -5 -17 -10 -14 -6 4 -8 10 -5 14 2 5 -8 8 -23 8 -15 0 -35 3 -44 8 -25 10
-49 -1 -55 -25 -5 -17 -12 -20 -44 -16 -26 3 -39 1 -39 -7 -1 -7 -7 -1 -15 13
-14 26 -20 21 -27 -24 -2 -11 -9 -21 -17 -24 -8 -3 -11 0 -7 6 3 6 2 13 -3 16
-5 4 -11 -2 -13 -11 -2 -10 -10 -18 -18 -19 -8 -1 -28 -2 -43 -2 -16 -1 -26
-5 -23 -10 2 -4 -3 -16 -11 -27 -15 -19 -15 -19 -8 5 7 24 7 24 -11 9 -12 -11
-30 -15 -50 -12 -18 3 -35 0 -39 -7 -5 -8 -10 -8 -21 1 -11 9 -15 3 -20 -32
-6 -34 -9 -39 -15 -24 -6 15 -8 9 -8 -21 -1 -35 -7 -46 -38 -73 -20 -17 -32
-31 -27 -31 5 0 10 -9 10 -20 0 -14 -7 -20 -24 -20 -13 0 -20 4 -17 10 4 6 11
8 16 5 5 -4 9 -1 9 4 0 10 -23 15 -34 9 -2 -2 -13 8 -25 22 -17 21 -20 22 -21
8 0 -19 -8 -22 -34 -12 -25 10 -19 26 7 18 12 -3 19 -3 15 1 -4 4 -3 16 3 27
10 19 10 19 -15 3 -14 -10 -26 -13 -26 -9 0 5 -5 2 -10 -6 -9 -13 -11 -13 -20
0 -8 13 -11 13 -19 1 -5 -8 -16 -11 -25 -8 -11 5 -16 1 -16 -13 0 -11 6 -20
14 -20 17 0 30 -35 20 -51 -4 -8 -11 -3 -20 12 -13 24 -13 24 -15 -11 -3 -49
-4 -54 -11 -66 -7 -10 -3 -49 8 -86 3 -9 1 -19 -5 -22 -8 -6 -12 -57 -27 -382
-5 -113 -3 -133 11 -148 9 -9 12 -16 6 -16 -12 0 -15 -58 -5 -84 4 -12 11 -13
24 -6 13 7 20 6 24 -3 3 -8 8 -7 16 5 6 10 19 18 28 19 10 0 4 6 -15 15 -30
13 -31 15 -20 44 13 34 27 40 27 10 0 -16 7 -20 30 -20 17 0 30 5 30 10 0 6
-11 10 -25 10 -14 0 -25 5 -25 10 0 6 11 10 25 10 14 0 25 4 25 8 0 5 7 17 16
28 15 19 16 19 9 -1 -5 -16 -4 -18 6 -7 19 18 46 15 63 -10 12 -16 18 -19 29
-10 10 8 17 8 24 1 8 -8 13 -5 18 10 6 21 29 27 59 15 12 -5 14 -10 6 -19 -12
-14 -3 -44 14 -47 33 -4 42 -2 53 12 10 13 15 13 41 -2 37 -22 53 -23 46 -3
-4 10 0 15 16 15 14 0 19 4 14 13 -4 6 1 5 12 -4 17 -14 68 -39 79 -39 3 0 5
8 5 17 0 10 12 27 27 39 24 19 29 20 56 6 25 -12 31 -12 38 -1 7 12 14 11 40
-4 30 -17 49 -15 49 4 0 6 -8 8 -17 5 -10 -3 -25 -1 -33 4 -13 8 -12 11 5 24
11 8 22 11 25 7 3 -4 13 -10 23 -14 18 -7 24 -37 6 -37 -6 0 -9 -6 -6 -12 2
-7 9 -13 16 -13 7 0 18 -7 24 -16 15 -20 57 -31 58 -16 1 7 0 21 -1 31 -1 14
3 17 15 12 9 -3 18 -6 21 -6 2 0 1 -7 -3 -16 -5 -13 -2 -15 17 -9 15 5 20 4
16 -4 -4 -6 -3 -11 2 -11 6 0 12 10 16 23 3 15 22 31 54 46 40 19 61 22 118
18 109 -7 267 -27 289 -37 11 -5 39 -14 62 -21 51 -15 93 -71 99 -133 6 -68
13 -89 27 -79 7 5 28 8 47 6 76 -8 166 -8 181 -1 8 4 38 9 65 12 27 3 74 10
104 16 30 6 76 14 103 17 34 4 47 9 48 21 0 10 3 12 5 5 3 -7 12 -9 20 -6 7 3
12 8 10 12 -2 3 24 5 57 5 34 -1 67 2 72 7 6 4 32 13 57 18 26 6 57 21 70 34
26 26 28 30 28 58 0 18 2 19 15 9 13 -11 15 -7 15 23 0 20 4 38 9 41 5 4 12
24 16 46 4 22 12 40 18 39 7 -1 25 -1 40 0 24 1 26 3 17 21 -8 16 -8 20 4 20
8 0 16 -6 19 -12 4 -10 7 -10 18 0 18 17 29 15 29 -5 0 -10 14 -33 31 -52 30
-33 32 -33 115 -32 47 0 89 3 94 6 6 3 10 1 10 -4 0 -6 7 -11 15 -11 8 0 12 6
9 14 -3 9 8 17 37 24 24 6 46 9 49 7 8 -5 6 -111 -5 -231 -7 -83 -6 -91 10
-98 10 -4 23 -1 29 5 7 8 7 10 1 6 -18 -10 -38 9 -31 29 5 14 9 15 15 5 6 -10
10 -8 15 5 4 11 2 20 -3 22 -13 4 -15 32 -2 32 5 0 11 -4 13 -10 5 -15 29 5
31 27 1 14 6 19 18 16 24 -7 27 -20 20 -73 -6 -39 -4 -48 17 -67 12 -13 30
-23 38 -23 7 0 14 -4 14 -10 0 -5 -4 -10 -10 -10 -5 0 -10 -4 -10 -9 0 -4 11
-6 24 -4 13 3 27 0 30 -6 10 -16 26 -14 26 3 0 8 -8 17 -17 20 -15 6 -15 8 -3
16 10 6 23 4 38 -6 21 -14 24 -13 42 8 22 26 25 38 10 38 -5 0 -10 4 -10 10 0
5 10 10 23 9 35 0 83 7 95 15 15 9 27 -18 16 -35 -4 -8 -3 -9 5 -5 13 9 37
-13 44 -40 4 -17 5 -17 6 -1 0 10 7 17 14 16 29 -4 39 3 52 35 14 32 17 34 45
26 21 -6 30 -5 30 3 0 8 3 7 9 -2 5 -7 14 -10 20 -7 16 10 14 26 -4 26 -20 0
-19 5 10 36 l25 26 10 -27 c6 -14 8 -30 5 -35 -3 -5 -1 -11 5 -15 6 -3 10 3
10 16 0 22 25 48 48 49 6 0 12 -6 12 -14 0 -21 27 -40 33 -24 3 8 9 2 17 -14
11 -22 11 -30 0 -43 -11 -13 -11 -19 3 -33 11 -10 17 -12 17 -4 0 7 7 12 16
12 9 0 14 6 11 13 -5 15 10 47 23 47 6 0 10 -7 10 -15 0 -8 7 -15 15 -15 8 0
12 6 9 14 -4 11 8 13 58 12 l63 -1 -1 -95 c-1 -149 -6 -294 -11 -302 -2 -4 -6
-71 -8 -150 -2 -79 -7 -167 -10 -195 -3 -29 -7 -74 -10 -100 -2 -27 -11 -108
-20 -182 -9 -74 -18 -164 -20 -200 -2 -36 -7 -84 -10 -106 -3 -22 -9 -89 -15
-150 -14 -163 -47 -495 -54 -550 -2 -16 -7 -66 -10 -110 -4 -44 -11 -116 -16
-160 -21 -175 -47 -472 -55 -625 -3 -58 -12 -179 -19 -270 -8 -91 -14 -172
-14 -180 0 -36 -14 -165 -19 -173 -3 -5 -7 -45 -8 -90 -2 -46 -8 -83 -14 -85
-6 -2 -11 -10 -11 -18 0 -9 -4 -12 -10 -9 -5 3 -10 2 -10 -3 0 -5 9 -12 20
-15 16 -4 19 -12 16 -44 -2 -22 -8 -48 -15 -59 -10 -16 -11 -15 -6 13 3 17 2
34 -3 37 -10 6 -34 -49 -25 -57 8 -9 -8 -48 -18 -42 -21 13 -93 7 -104 -9 -14
-19 -31 -21 -38 -3 -4 9 -7 9 -15 -1 -5 -7 -29 -15 -53 -18 -24 -3 -60 -9 -79
-14 -19 -4 -53 -7 -75 -6 -55 4 -57 5 -51 15 10 15 -34 19 -161 15 -104 -3
-123 -1 -123 11 0 9 -9 15 -22 14 -17 -1 -19 -2 -5 -6 9 -2 17 -8 17 -13 0 -5
-43 -7 -96 -5 -67 2 -96 0 -99 -8 -2 -7 -6 -25 -10 -40 -5 -25 -8 -27 -21 -16
-18 15 -53 19 -60 7 -9 -14 -61 -9 -74 7 -9 11 -16 12 -26 4 -17 -14 -62 15
-66 44 -2 15 -10 22 -25 22 -11 0 -24 3 -28 7 -4 4 -20 4 -36 1 -25 -5 -29 -3
-29 18 0 20 2 21 11 9 8 -11 12 -12 16 -2 2 6 12 12 20 12 26 0 8 11 -23 14
-19 3 -29 9 -28 20 1 9 -4 16 -11 16 -16 0 -30 -33 -16 -38 13 -4 15 -52 3
-52 -5 0 -17 6 -27 14 -17 12 -21 12 -32 -3 -11 -15 -12 -15 -13 1 0 30 -20
69 -31 62 -8 -4 -8 -9 0 -17 14 -14 14 -30 1 -22 -6 4 -17 1 -25 -5 -8 -6 -18
-9 -23 -6 -6 3 -16 -2 -23 -11 -13 -14 -15 -13 -19 12 -6 32 -16 36 -113 40
-37 2 -74 8 -82 15 -11 9 -21 8 -46 -4 -36 -18 -73 -21 -64 -6 3 6 -3 10 -15
10 -13 0 -19 4 -14 12 4 6 3 8 -3 5 -21 -13 -181 -5 -192 10 -3 4 -28 9 -56
11 -27 2 -53 8 -56 14 -4 6 -20 7 -38 3 -18 -4 -37 -2 -44 3 -12 9 -57 -1 -57
-13 0 -4 4 -4 8 -1 5 3 16 -4 25 -15 18 -20 9 -27 -10 -8 -14 14 -33 3 -34
-19 -2 -21 -28 133 -36 206 -2 28 -8 52 -13 52 -4 0 -13 15 -20 33 -29 79 -56
112 -116 141 -26 13 -160 28 -444 49 -30 2 -32 -9 -51 -257 -7 -91 -15 -166
-18 -166 -9 0 -45 63 -46 79 0 8 -15 19 -33 23 -17 5 -32 14 -33 21 0 7 -3 28
-6 47 -2 19 -5 41 -6 48 0 6 -4 12 -9 12 -4 0 -8 10 -8 22 0 11 -18 38 -39 59
-27 27 -45 57 -57 96 -19 61 -41 103 -60 115 -6 4 -15 34 -19 65 -9 72 -39
155 -71 192 -13 16 -28 52 -34 79 -5 28 -17 68 -25 89 -18 40 -59 148 -105
273 -16 41 -38 98 -50 125 -12 28 -25 59 -29 70 -4 11 -19 45 -33 75 -14 30
-36 83 -49 118 -13 34 -27 62 -31 62 -5 0 -8 6 -8 14 0 24 -88 225 -167 379
-43 84 -84 166 -91 184 -25 61 -48 75 -290 179 -18 8 -50 17 -72 20 -28 5 -40
12 -40 23 0 10 11 89 25 177 62 398 95 643 95 703 0 55 -4 69 -23 87 -22 22
-33 28 -152 94 -33 19 -104 60 -158 92 -54 32 -101 58 -106 58 -5 0 -13 -39
-19 -87 -25 -199 -42 -319 -48 -343 -3 -14 -10 -52 -14 -85 -21 -150 -51 -347
-64 -420 -9 -44 -22 -134 -30 -200 -19 -162 -63 -477 -75 -545 -6 -30 -15 -86
-22 -125 -6 -38 -19 -82 -30 -97 -22 -31 -12 -43 41 -47 46 -4 50 -7 50 -41 0
-27 3 -29 36 -28 43 2 66 -23 31 -33 -44 -13 -119 12 -136 45 -7 12 -26 30
-42 40 -45 27 -85 13 -146 -51 -49 -51 -74 -93 -38 -63 18 15 20 -1 3 -18 -9
-9 -8 -12 6 -12 15 0 16 -3 6 -15 -10 -12 -10 -15 2 -15 9 0 14 -12 15 -35 1
-38 17 -65 39 -65 8 0 14 -7 14 -15 0 -9 12 -20 26 -25 14 -6 22 -14 19 -20
-3 -5 -3 -15 1 -22 5 -8 10 -6 15 8 15 39 9 -69 -7 -128 -16 -56 -28 -71 -37
-45 -2 6 -3 -10 -1 -36 2 -27 6 -52 9 -58 11 -16 -5 -48 -21 -42 -10 4 -14 -2
-14 -20 0 -14 -6 -27 -12 -30 -10 -4 -10 -7 0 -18 19 -21 15 -49 -8 -49 -11 0
-19 -3 -19 -7 3 -20 -3 -32 -26 -55 -21 -21 -32 -25 -64 -21 -35 4 -40 2 -43
-19 -2 -19 -8 -22 -33 -19 -83 12 -90 9 -94 -34 -3 -34 -5 -37 -10 -15 -5 20
-16 27 -50 34 -32 7 -45 6 -55 -5 -17 -18 -40 -139 -29 -149 4 -4 32 -11 61
-15 52 -7 52 -7 53 22 l1 28 7 -30 c8 -36 44 -57 89 -51 19 3 39 1 45 -5 7 -5
21 -16 32 -25 19 -14 19 -15 -10 -9 -16 3 -61 7 -100 10 -38 3 -82 8 -97 11
-21 5 -28 3 -28 -9 0 -14 30 -22 120 -33 14 -2 41 -6 60 -10 19 -4 38 -8 42
-8 3 -1 10 -4 14 -8 4 -5 15 -8 25 -8 16 0 17 -4 9 -25 -8 -21 -6 -25 8 -26
11 -1 8 -4 -8 -9 l-25 -8 28 -1 c16 -1 26 -5 22 -11 -3 -5 -2 -17 3 -27 7 -12
3 -24 -19 -47 -16 -17 -29 -34 -29 -37 0 -11 -139 -2 -245 16 -55 9 -113 18
-130 20 -53 6 -70 12 -67 25 1 7 7 44 12 84 5 39 25 150 44 246 18 96 39 216
46 265 6 50 18 131 26 180 8 50 19 124 24 165 5 41 22 156 39 255 67 401 141
865 151 950 6 50 21 155 35 235 13 80 29 186 35 235 7 50 32 224 56 388 50
331 76 560 67 582 -7 20 6 19 45 -5 18 -11 38 -20 44 -20 7 0 23 -11 37 -24
15 -13 64 -45 109 -70 l84 -46 19 23 c14 16 17 17 13 5 -4 -13 -1 -18 12 -18
16 0 17 -2 4 -10 -13 -8 -13 -11 2 -26 14 -15 18 -15 21 -3 2 8 15 50 27 94
29 99 29 124 1 164 -13 18 -24 38 -25 45 -1 7 -10 26 -20 41 -10 15 -19 40
-20 54 -1 14 -7 35 -13 46 -27 51 -34 93 -24 151 17 98 21 116 36 144 8 15 12
30 9 33 -3 3 0 25 7 48 7 24 14 71 16 104 9 202 8 315 -4 435 -8 74 -15 146
-16 160 -1 14 -5 30 -8 35 -3 6 -16 56 -30 113 -16 70 -28 101 -36 97 -7 -2
-13 3 -13 11 0 9 5 12 12 8 8 -5 9 -2 5 10 -4 10 -7 21 -7 24 0 4 -4 0 -10 -8
-7 -12 -10 -11 -15 5 -16 49 -59 142 -73 157 -21 24 -36 11 -17 -15 17 -25 20
-47 5 -47 -5 0 -10 8 -10 18 0 43 -68 142 -97 142 -7 0 -13 4 -13 9 0 5 -13
14 -30 20 -24 8 -30 16 -30 40 0 17 -5 31 -10 31 -6 0 -15 11 -20 25 -6 16
-14 23 -25 19 -20 -8 -57 36 -44 53 7 7 1 20 -16 39 -19 21 -28 25 -34 16 -10
-17 -39 25 -47 68 -6 26 -10 29 -32 23 -17 -4 -23 -2 -18 5 12 19 -13 52 -38
52 -19 0 -29 11 -47 48 -12 26 -27 50 -31 53 -5 3 -10 12 -11 20 -5 28 -42 79
-54 75 -8 -3 -13 3 -13 15 0 31 -29 67 -60 74 -19 4 -27 11 -23 20 6 18 -49
70 -97 92 -19 9 -47 28 -62 41 -16 14 -28 22 -28 17 0 -4 -8 1 -17 11 -23 26
-96 74 -149 100 -23 10 -45 28 -50 39 -5 11 -19 21 -31 23 -13 2 -23 7 -23 12
0 14 -89 24 -113 12 -28 -13 -77 -21 -77 -13 0 18 26 29 53 24 21 -4 28 -3 23
5 -5 8 1 12 17 12 14 0 34 8 45 18 23 20 37 68 22 77 -5 3 -10 15 -10 26 0 11
4 18 10 14 5 -3 7 -13 4 -23 -5 -13 -4 -14 4 -3 6 8 15 10 23 6 9 -6 11 -3 6
8 -4 10 -2 17 5 17 7 0 7 5 -2 14 -6 8 -10 30 -9 48 2 23 -1 32 -10 30 -8 -2
-11 3 -8 12 3 8 0 16 -7 18 -9 2 -9 8 1 28 l13 25 6 -22 c9 -31 34 -29 34 2 0
16 -6 25 -15 25 -16 0 -20 30 -6 46 5 5 12 23 15 40 6 24 3 33 -10 38 -13 5
-15 14 -11 41 3 19 1 37 -4 40 -15 10 -11 21 18 49 25 25 26 29 10 37 -25 14
-21 46 9 74 22 20 24 27 14 46 -10 17 -9 23 1 30 12 7 11 11 -1 19 -13 9 -13
11 0 19 8 5 18 7 22 5 4 -3 8 13 8 35 0 23 4 41 10 41 5 0 9 3 9 8 -4 25 2 62
10 58 5 -3 11 1 15 9 3 8 1 17 -4 20 -6 4 -10 1 -10 -6 0 -7 -3 -9 -7 -6 -3 4
1 15 9 24 11 13 16 39 16 88 -1 39 5 117 11 175 7 58 14 128 17 157 4 40 10
53 25 58 10 4 19 11 19 16 0 13 -18 11 -22 -3 -3 -7 -10 -8 -17 -4 -9 6 -7 13
9 28 16 15 20 27 15 45 -4 16 -2 22 5 18 5 -3 10 -2 10 4 0 5 -6 12 -12 14
-17 7 12 29 29 22 7 -2 15 1 19 7 5 7 10 3 15 -10 5 -12 15 -22 23 -22 18 0
30 16 18 24 -5 3 -7 20 -4 38 5 30 6 31 13 10 10 -26 59 -32 59 -7 0 8 -7 15
-15 15 -8 0 -15 5 -15 10 0 15 26 12 40 -5 17 -21 23 -19 37 10 6 14 7 25 2
25 -17 0 -9 25 11 38 12 7 19 20 18 30 -2 9 3 17 12 17 8 0 16 9 17 20 2 11 0
14 -3 8 -8 -18 -24 -16 -24 2 0 8 5 15 10 15 6 0 10 9 10 20 0 10 7 23 16 28
16 9 15 13 -2 61 -13 37 -15 57 -8 69 5 9 7 33 4 52 l-5 35 -2482 3 -2483 2 0
-6400z m4718 5934 c7 4 12 2 12 -3 0 -6 -13 -11 -30 -11 -18 0 -30 5 -30 13 0
23 12 28 25 10 7 -9 17 -13 23 -9z m-43 -94 c3 -5 1 -10 -4 -10 -6 0 -11 5
-11 10 0 6 2 10 4 10 3 0 8 -4 11 -10z m-185 -1381 c0 -11 -4 -17 -10 -14 -5
3 -10 13 -10 21 0 8 5 14 10 14 6 0 10 -9 10 -21z m794 -965 c3 -8 2 -12 -4
-9 -6 3 -10 10 -10 16 0 14 7 11 14 -7z m151 -202 c-3 -3 -11 0 -18 7 -9 10
-8 11 6 5 10 -3 15 -9 12 -12z m5965 -278 c0 -8 -5 -12 -10 -9 -6 4 -8 11 -5
16 9 14 15 11 15 -7z m-133 -287 c-3 -42 -16 -62 -30 -48 -7 7 -6 22 3 50 15
47 30 45 27 -2z m-2797 -11 c0 -11 -19 -15 -25 -6 -3 5 1 10 9 10 9 0 16 -2
16 -4z m1110 -176 c0 -5 -4 -10 -10 -10 -5 0 -10 5 -10 10 0 6 5 10 10 10 6 0
10 -4 10 -10z m1555 -490 c11 -34 -16 -90 -44 -90 -6 0 -11 -5 -11 -10 0 -6
-11 -8 -25 -4 -27 7 -28 5 -19 -20 3 -9 10 -14 14 -11 5 3 8 -8 8 -25 -1 -36
-13 -39 -22 -5 -7 28 -26 34 -26 8 0 -15 -2 -14 -14 3 -8 10 -10 21 -5 22 18
7 9 32 -12 32 -17 0 -20 -4 -15 -22 4 -17 -1 -28 -16 -40 -19 -14 -20 -18 -8
-33 9 -11 22 -14 38 -10 20 5 23 3 17 -15 -4 -13 -2 -20 6 -20 7 0 2 -11 -11
-25 -18 -19 -26 -22 -32 -13 -6 10 -10 10 -18 -2 -9 -13 -11 -13 -20 0 -5 8
-7 23 -4 33 6 21 -2 22 -22 3 -8 -8 -11 -22 -8 -30 3 -9 2 -16 -3 -16 -10 0
-38 62 -42 91 0 5 -6 7 -12 4 -5 -4 -19 1 -30 11 -12 11 -19 13 -19 5 0 -8 -7
-10 -20 -6 -14 4 -20 2 -20 -9 0 -8 -9 -20 -20 -26 -17 -9 -20 -8 -20 12 l0
22 -16 -22 c-14 -20 -17 -21 -27 -8 -7 9 -27 17 -45 18 -19 1 -36 6 -38 10 -3
4 -15 8 -28 8 -12 0 -27 5 -33 11 -7 7 -22 7 -52 -2 -32 -9 -44 -10 -53 -1 -7
7 -20 12 -30 12 -10 0 -23 10 -29 23 -9 20 -18 23 -64 23 -30 0 -49 -4 -42 -8
8 -5 7 -8 -5 -8 -10 0 -18 5 -18 10 0 6 -7 10 -15 10 -16 0 -32 67 -19 80 5 5
74 11 154 15 80 3 183 8 230 11 47 3 186 8 310 10 123 3 226 7 229 9 10 10 20
4 26 -15z m310 -40 c-11 -18 -46 -17 -56 1 -8 16 -6 21 13 28 17 7 26 5 35 -6
7 -9 10 -19 8 -23z m-1345 -1 c0 -6 -7 -8 -16 -5 -12 5 -15 2 -10 -10 10 -27
-22 -54 -66 -54 -28 0 -38 4 -38 16 0 12 -7 14 -32 9 -18 -4 -38 -11 -43 -15
-15 -12 -47 16 -43 37 3 15 14 18 61 19 32 1 60 4 64 8 11 11 123 7 123 -5z
m-577 -24 c40 -8 57 -22 35 -30 -28 -10 -120 -17 -293 -20 -99 -2 -182 -4
-185 -5 -3 -1 -20 -1 -39 0 -19 1 -38 -4 -43 -12 -7 -10 -10 -9 -19 5 -7 12
-14 15 -22 9 -15 -12 -300 -12 -318 -1 -21 13 -3 21 53 25 29 2 68 6 87 10 73
12 144 14 158 3 9 -8 13 -8 13 -1 0 8 37 11 108 11 143 0 301 7 308 13 7 7
110 3 157 -7z m312 -15 c-3 -5 -13 -10 -21 -10 -8 0 -14 5 -14 10 0 6 9 10 21
10 11 0 17 -4 14 -10z m-2898 -22 c-3 -8 -6 -5 -6 6 -1 11 2 17 5 13 3 -3 4
-12 1 -19z m763 11 c3 -1 10 0 15 1 40 9 99 9 110 0 7 -6 19 -9 26 -8 10 2 14
-8 14 -37 -1 -22 -5 -38 -10 -35 -6 3 -9 12 -8 20 2 8 -2 5 -9 -7 -6 -13 -17
-23 -25 -23 -8 0 -11 -4 -8 -10 3 -5 1 -10 -4 -10 -6 0 -11 3 -11 8 0 11 -182
3 -196 -9 -8 -7 -13 -6 -16 3 -4 10 -8 10 -21 -1 -10 -7 -17 -19 -17 -26 0
-12 -21 -25 -42 -25 -6 0 -8 7 -4 15 3 8 1 15 -4 15 -6 0 -10 -7 -10 -16 0 -8
-5 -12 -10 -9 -6 4 -17 1 -25 -5 -10 -8 -15 -9 -15 -2 0 8 -8 8 -22 3 -13 -5
-22 -16 -22 -25 2 -19 -12 -21 -19 -3 -4 7 -6 6 -6 -5 -1 -9 4 -18 11 -20 9
-3 9 -6 0 -12 -7 -4 -16 3 -24 18 -11 25 -48 37 -48 16 0 -5 6 -9 13 -7 7 1
11 -6 9 -16 -2 -12 6 -19 28 -23 31 -7 47 -20 36 -31 -3 -4 -18 -1 -32 6 -19
8 -30 9 -39 1 -10 -9 -16 -6 -25 10 -9 16 -8 21 4 26 19 7 8 29 -42 89 -7 8
-22 15 -32 15 -26 0 -60 29 -53 47 4 11 -6 13 -53 8 -57 -4 -84 5 -84 29 0 6
5 4 10 -4 9 -13 12 -12 26 5 14 19 15 19 20 -3 4 -12 11 -22 16 -22 6 0 7 7 4
16 -5 13 -3 14 6 7 18 -14 48 -12 48 3 0 21 32 26 193 29 87 2 160 5 162 6 3
4 174 2 185 -2z m488 -8 c3 -9 10 -19 16 -23 18 -12 -1 -21 -56 -26 -29 -3
-63 -11 -74 -19 -19 -12 -24 -12 -37 1 -8 8 -18 11 -23 7 -5 -5 -22 -2 -39 5
-16 7 -24 13 -16 14 11 0 10 4 -3 19 -17 19 -16 20 31 26 26 3 55 7 63 9 8 1
41 2 73 3 45 0 60 -3 65 -16z m240 -21 c12 0 22 -4 22 -10 0 -12 -79 -13 -98
-2 -7 5 -10 16 -7 24 6 14 10 14 33 2 15 -8 37 -14 50 -14z m-103 11 c8 -14
-15 -26 -56 -27 -24 -2 -36 2 -36 11 0 9 10 12 29 10 15 -2 28 1 28 6 0 12 27
12 35 0z m2777 -88 c14 -27 3 -60 -15 -45 -11 9 -14 42 -7 90 2 14 3 14 7 -3
2 -11 9 -30 15 -42z m-5481 -28 c-9 -30 -9 -30 -10 10 -1 25 2 36 9 29 6 -6 6
-21 1 -39z m2019 15 c0 -5 -7 -10 -15 -10 -8 0 -15 5 -15 10 0 6 7 10 15 10 8
0 15 -4 15 -10z m-420 -30 c-9 -5 -9 -9 -1 -14 13 -8 15 -56 2 -56 -5 0 -14 7
-21 15 -10 12 -10 21 0 45 7 16 17 27 22 24 6 -4 6 -9 -2 -14z m3380 -22 c-1
-26 -3 -30 -10 -16 -6 9 -7 23 -4 32 9 25 14 19 14 -16z m90 10 c0 -16 -3 -19
-11 -11 -6 6 -8 16 -5 22 11 17 16 13 16 -11z m-206 -9 c-3 -5 -10 -7 -15 -3
-5 3 -7 10 -3 15 3 5 10 7 15 3 5 -3 7 -10 3 -15z m380 -37 c1 -8 9 -18 17
-23 8 -5 10 -9 4 -9 -5 0 -2 -7 8 -14 15 -12 16 -14 2 -20 -9 -3 -18 1 -21 9
-4 8 -15 15 -25 15 -12 0 -19 7 -19 20 0 11 5 20 12 20 9 0 9 3 1 11 -6 6 -8
20 -5 32 5 20 6 20 15 -4 5 -13 10 -30 11 -37z m-129 37 c10 -15 -1 -23 -20
-15 -9 3 -13 10 -10 16 8 13 22 13 30 -1z m-105 -9 c0 -5 -4 -10 -10 -10 -5 0
-10 5 -10 10 0 6 5 10 10 10 6 0 10 -4 10 -10z m40 -16 c0 -14 -12 -19 -23 -8
-9 9 4 35 14 28 5 -3 9 -12 9 -20z m-240 -19 c0 -8 -7 -15 -15 -15 -8 0 -15 7
-15 15 0 8 7 15 15 15 8 0 15 -7 15 -15z m1070 5 c0 -5 -4 -10 -10 -10 -5 0
-10 5 -10 10 0 6 5 10 10 10 6 0 10 -4 10 -10z m-560 -20 c0 -5 -7 -10 -15
-10 -8 0 -15 5 -15 10 0 6 7 10 15 10 8 0 15 -4 15 -10z m41 -13 c-13 -13 -26
-3 -16 12 3 6 11 8 17 5 6 -4 6 -10 -1 -17z m-301 3 c0 -5 -7 -10 -15 -10 -8
0 -15 5 -15 10 0 6 7 10 15 10 8 0 15 -4 15 -10z m778 -23 c2 -12 -3 -17 -17
-17 -12 0 -21 6 -21 13 0 31 32 34 38 4z m-4096 -22 c0 -5 -5 -11 -11 -13 -6
-2 -11 4 -11 13 0 9 5 15 11 13 6 -2 11 -8 11 -13z m3552 -49 c-3 -15 -13 -30
-20 -33 -20 -8 -43 15 -37 36 3 12 0 19 -9 18 -7 -1 -14 3 -16 8 -1 6 9 10 23
10 13 1 28 4 32 8 14 15 34 -19 27 -47z m-5399 14 c8 0 30 -16 49 -36 l35 -36
-12 31 c-6 17 -15 31 -19 31 -4 0 -8 5 -8 10 0 32 54 -11 56 -44 1 -12 6 -32
12 -46 5 -14 7 -29 4 -34 -3 -5 -6 -21 -7 -35 -1 -14 -3 -33 -3 -41 -3 -20
-56 43 -83 97 -11 23 -29 54 -41 68 -12 16 -17 32 -13 43 5 12 9 13 12 5 3 -7
11 -13 18 -13z m5480 -36 c-10 -8 -23 -14 -28 -14 -5 0 -7 -11 -5 -24 5 -25
-14 -42 -33 -30 -15 9 -10 34 6 34 8 0 15 5 15 10 0 6 -5 10 -10 10 -6 0 -5 6
2 14 9 10 15 11 20 2 5 -6 8 -2 8 12 0 20 2 21 22 11 21 -11 21 -12 3 -25z
m443 -19 c1 -32 -2 -55 -8 -55 -5 0 -10 24 -10 55 0 30 4 55 8 55 4 0 9 -25
10 -55z m-1467 1 c4 -5 11 -6 17 -2 6 4 10 -8 9 -29 -1 -41 -25 -45 -42 -7 -5
12 -16 20 -22 17 -7 -2 -14 0 -14 5 -1 6 -2 16 -3 23 -1 6 -1 15 1 19 4 8 44
-11 54 -26z m859 24 c0 -5 -4 -10 -10 -10 -5 0 -10 5 -10 10 0 6 5 10 10 10 6
0 10 -4 10 -10z m238 -24 c5 -37 -19 -31 -29 8 -6 22 -5 27 9 24 10 -2 18 -15
20 -32z m-398 -26 c0 -5 -2 -10 -4 -10 -3 0 -8 5 -11 10 -3 6 -1 10 4 10 6 0
11 -4 11 -10z m197 -29 c-5 -22 19 -37 27 -18 3 9 7 8 15 -3 14 -20 7 -23 -33
-16 -33 6 -73 46 -46 46 5 0 10 -6 10 -12 0 -7 5 -5 11 5 13 23 23 22 16 -2z
m148 9 c3 -6 -4 -10 -17 -10 -18 0 -20 2 -8 10 19 12 18 12 25 0z m-205 -16
c0 -8 -4 -12 -10 -9 -5 3 -10 2 -10 -4 0 -5 4 -12 8 -15 10 -6 9 -36 -2 -55
-5 -7 -3 -18 3 -24 9 -9 11 -8 5 6 -5 13 -2 16 10 11 12 -5 16 0 16 20 0 26 2
27 43 23 38 -4 42 -6 38 -28 -1 -13 -7 -27 -12 -30 -5 -3 -8 -16 -7 -30 2 -18
-2 -24 -15 -22 -15 1 -17 -4 -13 -22 4 -14 0 -27 -9 -35 -8 -7 -12 -17 -8 -24
3 -6 -2 -3 -13 6 -16 14 -23 15 -34 5 -10 -10 -12 -9 -7 6 4 9 2 17 -3 17 -6
0 -10 -8 -10 -17 0 -24 -16 -4 -24 30 -6 27 8 39 17 15 3 -7 4 1 2 17 -1 17
-3 36 -4 43 0 6 -5 12 -11 12 -5 0 -9 -10 -7 -21 1 -12 -4 -24 -12 -27 -10 -3
-12 3 -9 29 3 19 2 44 -3 56 -5 15 -3 25 6 33 8 7 12 17 9 22 -4 6 1 8 13 4
12 -4 25 -1 33 9 16 19 20 19 20 -1z m208 -13 c1 -1 -2 -10 -8 -21 -7 -14 -21
-20 -44 -20 -29 0 -33 3 -33 24 0 22 3 24 41 21 22 -2 42 -4 44 -4z m422 -51
c0 -11 -7 -20 -15 -20 -27 0 -18 30 13 39 1 1 2 -8 2 -19z m-454 -27 c-10 -10
-19 5 -10 18 6 11 8 11 12 0 2 -7 1 -15 -2 -18z m504 7 c0 -5 -4 -10 -10 -10
-5 0 -10 5 -10 10 0 6 5 10 10 10 6 0 10 -4 10 -10z m-4185 -30 c3 -5 1 -10
-4 -10 -6 0 -11 5 -11 10 0 6 2 10 4 10 3 0 8 -4 11 -10z m55 -44 c0 -3 -4 -8
-10 -11 -5 -3 -10 -1 -10 4 0 6 5 11 10 11 6 0 10 -2 10 -4z m-40 -16 c0 -5
-2 -10 -4 -10 -3 0 -8 5 -11 10 -3 6 -1 10 4 10 6 0 11 -4 11 -10z m3380 -16
c0 -8 -7 -14 -15 -14 -15 0 -21 21 -9 33 10 9 24 -2 24 -19z m730 -44 c0 -5
-7 -10 -15 -10 -8 0 -15 5 -15 10 0 6 7 10 15 10 8 0 15 -4 15 -10z m-4525
-10 c-3 -5 -11 -10 -16 -10 -6 0 -7 5 -4 10 3 6 11 10 16 10 6 0 7 -4 4 -10z
m3805 -5 c-7 -9 -15 -13 -17 -11 -7 7 7 26 19 26 6 0 6 -6 -2 -15z m44 0 c-4
-8 -8 -15 -10 -15 -2 0 -4 7 -4 15 0 8 4 15 10 15 5 0 7 -7 4 -15z m81 -16
c-8 -12 -45 -7 -45 7 0 7 10 9 25 6 14 -2 22 -8 20 -13z m120 1 c3 -5 -1 -10
-9 -10 -9 0 -16 5 -16 10 0 6 4 10 9 10 6 0 13 -4 16 -10z m505 -41 c0 -5 -4
-9 -10 -9 -5 0 -10 7 -10 16 0 8 5 12 10 9 6 -3 10 -10 10 -16z m-576 -44 c-4
-8 -8 -15 -10 -15 -2 0 -4 7 -4 15 0 8 4 15 10 15 5 0 7 -7 4 -15z m592 -409
c-4 -143 -11 -380 -16 -526 -5 -146 -12 -386 -15 -535 -3 -148 -7 -315 -10
-370 -3 -55 -7 -179 -10 -275 -5 -165 -7 -226 -20 -580 -8 -219 -14 -273 -32
-292 -11 -12 -19 -51 -25 -125 -8 -96 -7 -109 8 -120 23 -17 21 -56 -5 -82
-19 -19 -21 -33 -23 -173 -3 -203 -1 -231 19 -245 9 -7 15 -14 12 -15 -33 -21
-52 -28 -57 -23 -4 4 -7 33 -7 65 0 33 -5 64 -12 71 -7 7 -8 21 -3 40 5 18 4
40 -3 59 -10 25 -9 33 3 40 11 7 12 10 2 10 -10 0 -13 16 -10 65 1 36 -1 65
-6 65 -4 0 -6 6 -3 14 3 8 1 17 -6 19 -9 3 -8 9 3 22 14 17 13 18 -6 13 -29
-7 -56 22 -38 40 7 7 18 12 24 12 5 0 10 7 10 16 0 12 6 15 21 11 17 -5 18 -3
8 9 -14 17 -16 72 -4 134 7 40 9 42 16 20 l7 -25 1 28 c1 21 -5 30 -26 39 -35
14 -39 15 -63 17 -23 1 -26 23 -5 41 11 9 11 16 3 29 -14 22 -3 85 17 101 11
9 14 23 9 45 -3 19 -1 43 6 55 7 14 8 20 1 16 -6 -4 -9 4 -6 24 2 21 -1 33
-11 37 -8 3 -14 11 -14 18 0 7 -7 18 -15 25 -8 7 -12 16 -9 22 3 5 2 14 -3 21
-25 33 2 137 34 137 7 0 13 3 13 6 0 8 -23 30 -40 37 -8 4 -2 5 13 2 20 -4 26
-2 22 5 -4 6 1 17 11 25 11 7 16 17 12 21 -4 4 -14 1 -23 -6 -9 -7 -18 -10
-22 -6 -3 3 -2 6 4 6 6 0 13 9 16 20 6 25 -1 26 -19 3 -13 -17 -15 -17 -27 -1
-9 11 -21 15 -35 11 -18 -4 -21 -2 -16 11 5 12 2 15 -10 10 -9 -3 -16 -10 -16
-15 0 -9 -60 9 -61 19 -5 41 -4 50 4 45 6 -4 8 0 4 10 -3 9 -2 19 4 22 5 4 12
-1 15 -9 3 -8 14 -18 25 -21 10 -4 19 -14 20 -23 1 -10 4 -7 8 8 6 19 13 25
34 23 18 -1 27 3 27 14 0 8 9 17 21 20 13 4 18 11 14 21 -4 12 -3 13 9 3 8 -7
17 -22 19 -34 2 -12 3 -1 3 25 -1 25 -4 41 -8 35 -8 -13 -18 -6 -22 15 -2 7
-6 20 -9 28 -3 8 -6 38 -5 65 1 112 -1 125 -19 118 -10 -3 -1 7 20 22 l38 26
-20 35 c-12 19 -21 45 -20 57 1 21 2 20 9 -3 l8 -25 1 26 c1 31 -8 42 -25 28
-8 -7 -14 -7 -19 1 -3 5 1 10 9 10 9 0 16 5 16 12 0 6 7 19 16 29 15 16 14 17
-4 12 -11 -2 -23 0 -26 6 -4 7 1 11 13 11 17 0 21 6 21 31 0 17 -4 28 -10 24
-5 -3 -10 -2 -10 4 0 5 -9 13 -21 16 -22 7 -24 50 -1 50 6 0 12 3 12 8 0 4 0
12 0 18 0 5 -4 8 -9 5 -5 -4 -9 14 -9 39 1 39 4 45 20 39 10 -3 18 -1 18 5 0
6 -4 11 -9 11 -5 0 -8 27 -7 59 1 63 16 75 16 13 0 -56 18 -26 24 41 4 53 -7
77 -20 42 -5 -13 -8 -13 -21 0 -18 18 -7 38 18 32 13 -3 21 3 28 22 9 24 10
22 11 -19 l2 -45 13 30 c9 22 10 35 3 50 -8 14 -8 20 1 23 17 6 13 22 -6 23
-16 1 -15 2 1 6 15 4 16 7 5 14 -11 7 -11 9 4 9 9 0 17 7 17 15 0 8 -9 15 -21
15 -17 0 -19 4 -13 23 4 12 9 24 13 27 8 7 7 37 -2 46 -4 4 -2 13 4 20 6 8 8
22 5 31 -5 15 -3 14 9 -2 15 -18 16 -14 14 62 -3 86 4 112 20 72 8 -21 10 -18
16 26 4 28 10 54 13 59 3 5 6 23 8 40 9 103 15 160 19 165 2 4 6 40 10 81 3
41 11 80 17 87 7 9 7 17 -1 27 -8 10 -8 16 3 25 8 6 12 21 9 31 -3 11 0 20 6
20 6 0 12 -12 12 -27 1 -16 7 6 14 47 15 89 12 83 26 74 8 -5 10 -79 5 -268z
m734 -766 c-9 -5 -9 -9 -1 -14 6 -4 11 -21 11 -38 0 -26 -2 -29 -15 -18 -11 9
-13 16 -6 23 7 7 7 15 1 23 -7 8 -7 21 1 40 10 24 13 26 17 10 2 -10 -1 -22
-8 -26z m-49 -44 c-7 -8 -8 -17 -3 -20 15 -9 11 -56 -4 -56 -9 0 -14 11 -14
31 0 32 18 75 27 65 3 -3 0 -12 -6 -20z m49 -62 c0 -8 -5 -12 -10 -9 -6 4 -8
11 -5 16 9 14 15 11 15 -7z m-5 -44 c3 -5 -1 -10 -9 -10 -9 0 -16 5 -16 10 0
6 4 10 9 10 6 0 13 -4 16 -10z m5 -24 c0 -2 -7 -6 -15 -10 -8 -3 -15 -1 -15 4
0 6 7 10 15 10 8 0 15 -2 15 -4z m-5928 -339 c29 -13 67 -35 83 -49 17 -14 44
-33 62 -42 18 -9 37 -25 43 -35 26 -49 4 -169 -55 -303 -19 -43 -35 -83 -35
-88 0 -5 27 -47 61 -92 33 -46 73 -103 89 -128 18 -28 49 -57 84 -78 53 -31
96 -91 96 -133 0 -8 13 -35 28 -60 69 -110 85 -202 49 -283 l-17 -39 -20 38
c-11 22 -20 45 -20 52 0 16 -116 113 -136 113 -7 0 -14 5 -14 10 0 6 -5 10
-12 10 -6 0 -27 12 -47 28 -50 38 -77 51 -117 55 -19 2 -37 6 -40 10 -10 10
33 15 149 20 169 7 173 45 7 66 -100 13 -120 18 -120 34 0 6 -3 8 -6 5 -3 -4
-14 2 -25 13 -14 14 -31 19 -59 17 -33 -1 -46 4 -73 28 -17 17 -45 40 -61 52
l-29 22 130 0 c104 0 133 3 143 15 13 16 13 17 -34 71 -10 12 -30 45 -45 72
-42 79 -93 152 -106 152 -7 0 -20 9 -30 20 -19 21 -55 27 -55 10 0 -17 -114
-12 -150 6 -18 10 -47 17 -64 16 -28 -1 -45 11 -46 30 0 4 10 3 23 -1 17 -7
28 -3 49 16 24 23 35 25 133 29 l107 3 81 -79 80 -80 19 27 c10 16 18 34 18
41 0 7 4 20 9 30 30 59 40 147 21 182 -6 11 -28 25 -50 31 -22 7 -40 18 -40
25 0 8 -10 20 -22 28 -13 9 -49 40 -81 70 -52 50 -55 55 -35 59 13 2 24 5 25
6 1 0 26 -10 55 -22z m4668 -263 c0 -8 -5 -12 -10 -9 -6 4 -8 11 -5 16 9 14
15 11 15 -7z m-5058 -174 l-9 -23 -16 23 c-12 18 -21 21 -43 16 -18 -5 -30 -3
-35 6 -17 26 -8 37 29 40 49 4 87 -27 74 -62z m5078 60 c0 -5 -4 -10 -10 -10
-5 0 -10 5 -10 10 0 6 5 10 10 10 6 0 10 -4 10 -10z m1310 -230 c0 -11 -2 -20
-4 -20 -2 0 -6 9 -9 20 -3 11 -1 20 4 20 5 0 9 -9 9 -20z m-9 -177 c-1 -76 -2
-225 -3 -330 -1 -185 -15 -380 -26 -368 -9 9 -1 376 13 600 2 33 4 102 5 154
0 52 3 91 6 88 4 -4 6 -69 5 -144z m-1076 77 c3 -5 2 -10 -4 -10 -5 0 -13 5
-16 10 -3 6 -2 10 4 10 5 0 13 -4 16 -10z m-5795 -580 c12 -8 11 -10 -7 -10
-13 0 -23 5 -23 10 0 13 11 13 30 0z m-180 -116 c0 -8 -5 -12 -10 -9 -6 4 -8
11 -5 16 9 14 15 11 15 -7z m5966 -151 c-10 -10 -19 5 -10 18 6 11 8 11 12 0
2 -7 1 -15 -2 -18z m-3886 -988 c0 -8 -2 -15 -4 -15 -2 0 -6 7 -10 15 -3 8 -1
15 4 15 6 0 10 -7 10 -15z m2710 -2585 c8 -5 11 -10 5 -10 -5 0 -17 5 -25 10
-8 5 -10 10 -5 10 6 0 17 -5 25 -10z m70 -20 c18 -12 2 -12 -25 0 -13 6 -15 9
-5 9 8 0 22 -4 30 -9z m95 -36 c24 -11 25 -13 5 -8 -14 4 -38 13 -55 20 -24
11 -25 13 -5 8 14 -4 39 -13 55 -20z m120 -34 c48 -14 278 -91 300 -100 11 -5
56 -20 100 -35 84 -27 127 -46 121 -52 -2 -2 -84 24 -182 57 -99 34 -226 77
-284 96 -137 44 -180 70 -55 34z m610 -211 c15 -15 -10 -11 -41 7 l-29 16 30
-7 c17 -3 34 -11 40 -16z m100 -30 c15 -14 -19 -11 -56 6 l-34 15 40 -6 c22
-4 44 -10 50 -15z m127 -7 c8 -12 24 -18 43 -17 39 2 55 -4 55 -21 0 -7 9 -18
20 -24 11 -6 18 -15 16 -19 -5 -8 -68 6 -116 26 -14 6 -32 13 -40 16 -12 4
-11 6 3 6 21 1 23 17 2 25 -16 6 -21 26 -6 26 6 0 16 -8 23 -18z m165 1 c-9
-9 -20 -13 -24 -9 -4 4 -1 11 7 16 25 16 35 11 17 -7z m487 -7 c-5 -13 -31
-27 -187 -101 -59 -28 -84 -35 -107 -30 -25 5 -30 11 -25 26 4 11 2 19 -4 19
-23 0 -10 20 17 26 15 3 53 18 86 32 55 24 59 25 71 9 12 -17 16 -16 66 7 62
28 91 32 83 12z m-444 -56 c12 -8 11 -10 -7 -10 -13 0 -23 5 -23 10 0 13 11
13 30 0z m-129 -309 c-7 -5 -10 -14 -7 -20 4 -6 5 -11 2 -11 -3 0 -10 10 -17
21 -9 17 -8 23 2 30 8 5 18 4 24 -2 6 -6 5 -13 -4 -18z"/>
<path d="M10365 8330 c3 -5 8 -10 11 -10 2 0 4 5 4 10 0 6 -5 10 -11 10 -5 0
-7 -4 -4 -10z"/>
<path d="M10485 8329 c-4 -6 -4 -13 0 -17 4 -4 10 -2 12 4 2 6 16 9 31 6 34
-6 26 3 -10 12 -15 3 -30 1 -33 -5z"/>
<path d="M10568 8323 c7 -3 16 -2 19 1 4 3 -2 6 -13 5 -11 0 -14 -3 -6 -6z"/>
<path d="M10633 8323 c-15 -5 -17 -23 -4 -23 5 0 11 7 15 15 3 8 4 15 3 14 -1
0 -8 -3 -14 -6z"/>
<path d="M10820 8323 c0 -5 5 -15 10 -23 8 -12 10 -11 10 8 0 12 -4 22 -10 22
-5 0 -10 -3 -10 -7z"/>
<path d="M10892 8313 c-5 -10 -12 -32 -15 -49 -6 -29 -4 -31 21 -31 15 0 22 2
16 4 -14 5 -8 67 6 71 12 4 3 22 -10 22 -5 0 -13 -8 -18 -17z"/>
<path d="M10951 8214 c0 -11 3 -14 6 -6 3 7 2 16 -1 19 -3 4 -6 -2 -5 -13z"/>
<path d="M7290 8239 c0 -5 5 -7 10 -4 6 3 10 8 10 11 0 2 -4 4 -10 4 -5 0 -10
-5 -10 -11z"/>
<path d="M7400 8230 c0 -5 5 -10 11 -10 5 0 7 5 4 10 -3 6 -8 10 -11 10 -2 0
-4 -4 -4 -10z"/>
<path d="M10760 7885 c-8 -9 -8 -15 -2 -15 12 0 26 19 19 26 -2 2 -10 -2 -17
-11z"/>
<path d="M10863 7853 c-21 -8 -15 -22 7 -16 11 3 20 9 20 14 0 10 -8 10 -27 2z"/>
<path d="M10805 7749 c-4 -5 -4 -13 -1 -16 3 -4 6 0 6 8 0 11 2 11 10 -1 6 -9
10 -10 10 -3 0 17 -17 25 -25 12z"/>
<path d="M11301 6594 c0 -11 3 -14 6 -6 3 7 2 16 -1 19 -3 4 -6 -2 -5 -13z"/>
<path d="M11240 6229 c0 -5 5 -7 10 -4 6 3 10 8 10 11 0 2 -4 4 -10 4 -5 0
-10 -5 -10 -11z"/>
<path d="M11210 5860 c0 -5 7 -10 15 -10 8 0 15 5 15 10 0 6 -7 10 -15 10 -8
0 -15 -4 -15 -10z"/>
<path d="M11080 5320 c0 -5 5 -10 10 -10 6 0 10 5 10 10 0 6 -4 10 -10 10 -5
0 -10 -4 -10 -10z"/>
<path d="M11230 5310 c0 -5 5 -10 11 -10 5 0 7 5 4 10 -3 6 -8 10 -11 10 -2 0
-4 -4 -4 -10z"/>
<path d="M5288 12723 c0 -43 -2 -89 -3 -103 -9 -95 -12 -570 -4 -570 5 0 9 30
9 68 1 190 17 422 31 442 8 13 13 11 29 -9 11 -13 20 -31 20 -41 0 -10 7 -21
16 -24 20 -8 44 10 44 33 0 13 2 13 9 2 7 -10 10 -10 16 -1 4 7 3 15 -3 19
-11 7 -11 36 1 47 3 4 0 16 -8 28 -18 25 -20 45 -3 28 7 -7 18 -12 25 -12 10
0 10 5 1 26 -9 19 -9 30 -1 43 9 14 8 22 -5 34 -12 13 -13 21 -5 40 11 23 10
24 -38 26 l-49 1 0 -54 c0 -36 -5 -60 -16 -70 -33 -34 -45 -13 -37 68 5 47 3
56 -11 56 -13 0 -16 -13 -18 -77z"/>
<path d="M8560 12786 c0 -7 -7 -20 -16 -27 -15 -12 -14 -15 2 -29 14 -11 19
-28 18 -60 -1 -25 2 -80 5 -122 4 -43 3 -79 -2 -81 -16 -5 5 -37 25 -37 18 0
18 -1 4 -16 -9 -8 -16 -24 -16 -34 0 -10 -6 -21 -12 -24 -9 -3 -8 -8 5 -16 13
-9 15 -15 7 -30 -13 -25 -13 -30 5 -30 7 0 18 -7 23 -16 13 -24 3 -55 -17 -52
-22 4 -27 -44 -7 -61 22 -18 46 -6 46 23 0 16 5 23 18 22 12 -1 16 5 14 22 -2
13 2 22 9 22 8 0 6 5 -4 13 -19 13 -28 81 -12 84 14 3 24 64 24 153 1 55 6 85
21 112 10 20 16 38 11 40 -14 5 0 78 15 78 8 0 14 4 14 10 0 5 -7 7 -16 3 -12
-4 -15 -2 -12 8 3 8 11 13 17 12 6 -2 11 1 11 6 0 5 3 16 6 25 5 14 -6 16 -90
16 -75 0 -96 -3 -96 -14z"/>
<path d="M8650 12310 c0 -5 5 -10 10 -10 6 0 10 5 10 10 0 6 -4 10 -10 10 -5
0 -10 -4 -10 -10z"/>
<path d="M8560 12120 c0 -5 5 -10 10 -10 16 0 12 -60 -6 -77 -8 -9 -13 -22
-10 -30 3 -8 6 -21 6 -29 0 -9 5 -12 10 -9 6 3 10 1 10 -4 0 -6 -5 -11 -11
-11 -5 0 -7 -5 -4 -10 4 -6 2 -17 -5 -25 -19 -22 -22 -62 -5 -69 8 -3 15 -11
15 -18 0 -9 -3 -9 -11 2 -8 12 -9 9 -5 -12 3 -14 9 -34 13 -45 6 -15 4 -16 -9
-6 -27 22 -29 1 -2 -24 20 -19 23 -27 14 -38 -8 -10 -8 -24 -1 -49 5 -22 6
-36 0 -36 -5 0 -9 -8 -9 -17 0 -10 -7 -30 -14 -45 -9 -17 -11 -30 -5 -34 6 -4
6 -10 -1 -19 -6 -7 -10 -17 -9 -21 1 -5 0 -16 -4 -24 -5 -15 -14 -55 -21 -97
-8 -44 -18 -63 -29 -56 -7 3 -4 -2 5 -13 15 -17 16 -28 8 -80 -6 -32 -10 -60
-10 -61 0 -2 -9 -3 -20 -3 -15 0 -20 -7 -20 -29 0 -16 5 -31 10 -33 6 -2 11
-20 12 -40 1 -32 3 -36 16 -25 13 10 15 8 9 -20 -3 -18 -2 -35 3 -38 6 -3 10
1 10 10 0 9 9 28 20 42 15 19 20 21 20 9 0 -9 4 -16 10 -16 6 0 6 -9 0 -25 -7
-19 -6 -23 5 -18 8 3 15 12 15 20 0 7 6 13 13 12 26 -3 37 2 37 17 0 8 4 13 9
10 5 -4 3 -20 -6 -37 -9 -19 -17 -65 -18 -117 -4 -115 -15 -204 -27 -219 -14
-18 -28 -16 -28 2 0 8 -5 15 -11 15 -6 0 -9 -9 -6 -20 3 -11 1 -17 -4 -14 -15
9 -22 -25 -9 -41 7 -8 8 -15 2 -15 -5 0 -14 6 -20 13 -11 13 -61 15 -80 3 -19
-11 -14 -40 8 -54 24 -15 26 -32 4 -32 -24 0 -7 -18 37 -39 36 -18 40 -18 48
-3 4 10 6 22 4 28 -2 6 6 14 17 17 18 5 19 3 8 -10 -11 -14 -11 -15 2 -11 16
5 33 68 19 68 -16 0 -10 28 7 34 9 4 18 5 18 4 1 -2 10 -15 19 -30 9 -15 17
-34 17 -43 0 -10 5 -13 11 -9 9 5 10 -1 4 -22 -5 -16 -9 -45 -11 -64 -4 -51
-23 -133 -33 -143 -6 -6 -15 -1 -23 12 -19 31 -23 26 -22 -31 0 -33 -5 -58
-13 -67 -8 -7 -11 -16 -8 -19 3 -4 10 0 15 8 14 22 13 -6 -1 -32 -8 -16 -8
-22 2 -29 7 -4 17 -5 21 -3 13 8 22 -26 9 -39 -8 -8 -11 -7 -11 5 0 18 -18 34
-27 24 -3 -3 0 -12 6 -20 10 -12 9 -14 -7 -9 -11 2 -23 -1 -27 -8 -6 -8 -4
-10 4 -5 7 5 18 0 26 -10 20 -27 18 -33 -9 -28 -21 3 -25 0 -29 -33 -3 -21 -8
-51 -11 -68 -3 -16 -1 -47 5 -68 9 -33 13 -37 32 -31 42 13 85 54 57 54 -5 0
-10 5 -10 11 0 6 13 1 28 -10 21 -15 29 -28 29 -53 0 -18 -4 -38 -9 -45 -5 -7
-7 -17 -3 -23 3 -6 -3 -10 -14 -10 -14 0 -19 5 -14 15 5 16 -22 55 -39 55 -4
0 -8 -7 -8 -15 0 -8 7 -15 15 -15 18 0 20 -20 3 -21 -7 -1 -17 -2 -23 -4 -5
-1 -16 -3 -24 -3 -10 -2 -12 -11 -8 -32 4 -16 2 -32 -4 -36 -16 -9 10 -34 35
-33 19 1 19 2 2 6 -15 4 -16 7 -5 14 8 4 14 14 15 21 0 7 2 22 3 33 l2 20 9
-20 c4 -11 6 -36 3 -57 -4 -30 -2 -38 16 -48 16 -8 19 -15 13 -27 -6 -10 -5
-25 4 -42 9 -16 10 -27 3 -31 -5 -4 -11 -27 -12 -51 -2 -39 1 -44 21 -47 19
-3 22 1 22 30 0 18 3 85 6 148 8 185 7 249 -6 266 -16 18 -5 31 13 16 10 -9
13 -4 14 25 1 19 6 39 13 43 9 5 6 13 -10 28 -12 11 -19 25 -16 31 4 6 9 43
12 83 3 40 10 78 16 85 5 7 7 16 4 22 -11 16 -15 121 -6 121 6 0 9 17 9 38 0
20 2 88 4 150 2 61 1 112 -2 112 -4 0 -15 -14 -25 -31 -21 -36 -26 -35 -19 4
3 17 13 29 28 33 30 8 30 48 -1 68 -21 15 -28 55 -11 72 3 3 1 17 -6 31 -10
23 -12 23 -18 6 -7 -16 -8 -16 -8 -1 -1 10 7 25 17 35 19 19 30 97 15 106 -5
3 -7 22 -5 42 4 32 7 36 27 31 28 -7 37 2 24 26 -7 13 -6 34 6 73 8 30 15 58
14 62 -9 53 20 114 45 95 20 -17 65 -20 70 -6 7 17 35 18 38 2 0 -7 2 -17 3
-23 2 -5 3 -15 4 -21 1 -7 15 -10 36 -7 26 3 35 0 35 -12 0 -8 4 -15 8 -15 4
0 8 -16 9 -36 1 -37 13 -58 20 -36 3 6 9 12 14 12 6 0 9 -6 8 -12 -4 -33 1
-40 26 -34 20 5 27 2 34 -16 5 -13 6 -27 3 -33 -4 -5 -5 -20 -3 -32 1 -13 -3
-23 -9 -23 -11 0 -20 16 -24 46 -3 21 -16 27 -35 15 -8 -5 -14 -32 -16 -74 -2
-36 -5 -69 -8 -74 -3 -4 1 -14 9 -21 12 -11 14 -10 14 3 0 20 16 19 24 -2 4
-9 1 -20 -6 -25 -10 -8 -10 -11 0 -15 6 -2 12 -11 12 -20 0 -10 -6 -12 -21 -8
-14 5 -20 3 -18 -7 4 -30 -2 -59 -10 -53 -17 10 -24 -18 -8 -30 10 -7 17 -24
17 -39 0 -18 7 -29 23 -36 12 -5 17 -9 10 -9 -6 -1 -19 -4 -28 -7 -10 -4 -15
-2 -13 7 2 9 -8 15 -29 17 -24 2 -33 -1 -33 -12 0 -19 17 -30 25 -16 6 10 65
-44 65 -61 0 -6 6 -6 18 0 10 6 28 8 39 5 15 -4 26 3 42 24 11 17 21 37 21 45
0 10 7 13 20 10 23 -6 28 15 5 23 -8 4 -18 24 -21 45 -4 21 -10 39 -14 39 -11
0 -7 33 5 43 6 5 3 6 -7 3 -10 -3 -26 -9 -35 -12 -15 -5 -16 -4 -3 5 13 10 13
13 -4 26 -19 14 -19 15 7 15 15 0 28 3 28 8 7 46 3 57 -23 60 -16 2 -28 7 -28
13 0 5 10 8 21 6 17 -1 23 4 26 24 2 15 -1 37 -6 50 -6 17 -4 33 6 52 12 24
12 28 -2 33 -9 4 -15 18 -15 35 0 27 -2 29 -21 18 -17 -9 -23 -8 -30 2 -9 15
-13 35 -10 57 1 6 -3 12 -9 12 -5 0 -10 5 -10 11 0 8 4 8 13 1 18 -15 58 3 50
24 -3 9 0 20 8 25 18 11 32 11 25 0 -12 -20 29 -20 62 -1 34 21 50 21 37 1 -3
-6 -10 -9 -15 -6 -10 6 -7 -42 4 -52 4 -4 11 -1 16 7 7 11 12 12 20 4 8 -8 8
-14 2 -18 -15 -9 -3 -44 17 -48 9 -2 31 13 51 33 29 31 40 37 63 32 16 -3 31
-12 34 -19 3 -8 8 -14 12 -14 10 0 33 51 26 58 -3 3 -5 0 -5 -6 0 -6 -7 -9
-15 -6 -8 4 -15 13 -15 21 0 9 6 13 15 9 8 -3 14 0 12 7 -1 7 10 13 26 15 31
4 31 5 16 35 -14 27 -37 42 -64 42 -22 0 -33 31 -17 47 6 6 17 6 30 -1 14 -7
24 -7 38 4 23 16 18 22 -20 29 -16 3 -34 10 -40 16 -5 5 -20 10 -33 10 -26 0
-43 25 -35 52 5 20 -15 41 -30 32 -4 -3 -8 -16 -8 -30 0 -13 -4 -24 -10 -24
-5 0 -12 -11 -16 -25 -7 -28 -41 -35 -50 -10 -9 23 -61 19 -67 -5 -7 -26 -62
-28 -76 -3 -13 23 -68 26 -76 4 -4 -9 0 -20 9 -26 23 -14 -10 -65 -44 -65 -18
0 -21 -3 -11 -9 10 -7 8 -12 -10 -25 -22 -15 -25 -15 -36 1 -7 9 -13 20 -13
25 0 4 -4 8 -10 8 -5 0 -10 -14 -10 -31 0 -20 -4 -29 -12 -26 -7 2 -13 14 -13
27 0 13 -6 25 -12 27 -7 3 -9 11 -6 19 6 17 -8 19 -25 2 -9 -9 -12 -9 -12 1 0
9 -8 11 -25 7 -21 -5 -25 -2 -30 21 -3 16 -10 42 -15 59 -6 17 -10 42 -10 57
0 14 -4 28 -9 31 -5 3 -7 15 -4 25 3 10 0 22 -6 25 -6 4 -11 -1 -12 -11 0 -17
-20 45 -35 110 -4 16 -13 27 -23 27 -9 0 -12 3 -6 8 12 8 35 57 35 73 0 6 -5
7 -11 4 -6 -5 -9 10 -8 43 2 37 6 49 16 45 14 -6 18 22 4 31 -5 3 -7 32 -6 63
5 80 0 93 -36 93 -16 0 -29 5 -29 10 0 6 -7 10 -15 10 -8 0 -15 -4 -15 -10z
m487 -682 c-3 -8 -6 -5 -6 6 -1 11 2 17 5 13 3 -3 4 -12 1 -19z m223 -39 c0
-14 7 -19 25 -19 18 0 25 -5 25 -19 0 -48 -74 -51 -83 -3 -6 29 11 74 24 66 5
-3 9 -14 9 -25z m-74 -6 c18 -25 18 -63 -1 -63 -18 0 -20 17 -3 22 8 3 4 9
-10 17 -23 12 -31 41 -11 41 7 0 18 -8 25 -17z m-366 -64 c0 -3 -6 -12 -14
-18 -12 -10 -14 -6 -13 24 1 33 2 35 14 19 7 -10 13 -21 13 -25z m530 -45 c0
-8 -5 -12 -10 -9 -6 4 -8 11 -5 16 9 14 15 11 15 -7z m-675 -213 c3 -5 1 -12
-5 -16 -5 -3 -10 1 -10 9 0 18 6 21 15 7z m365 -97 c0 -8 -4 -14 -10 -14 -5 0
-10 9 -10 21 0 11 5 17 10 14 6 -3 10 -13 10 -21z m-365 -283 c3 -5 1 -12 -5
-16 -5 -3 -10 1 -10 9 0 18 6 21 15 7z m-65 -963 c0 -16 -3 -19 -11 -11 -6 6
-8 16 -5 22 11 17 16 13 16 -11z"/>
<path d="M9816 12024 c-4 -9 -1 -23 5 -30 6 -8 9 -27 6 -44 -5 -23 -2 -33 16
-45 27 -19 41 -19 34 -1 -3 8 -1 17 6 20 9 3 9 5 0 5 -7 1 -13 8 -13 17 0 9
-5 34 -12 55 -12 40 -31 51 -42 23z"/>
<path d="M9920 12015 c-8 -9 -8 -15 -2 -15 12 0 26 19 19 26 -2 2 -10 -2 -17
-11z"/>
<path d="M9632 11978 c6 -18 28 -21 28 -4 0 9 -7 16 -16 16 -9 0 -14 -5 -12
-12z"/>
<path d="M9725 11949 c-4 -6 -5 -13 -2 -16 7 -7 27 6 27 18 0 12 -17 12 -25
-2z"/>
<path d="M9914 11925 c-2 -22 1 -25 20 -19 31 10 33 14 12 30 -27 19 -31 18
-32 -11z"/>
<path d="M9688 11857 c10 -12 10 -16 -3 -21 -9 -3 -13 -2 -10 4 3 5 0 7 -8 4
-9 -3 -12 -14 -9 -30 5 -28 -16 -86 -29 -78 -5 3 -7 10 -4 15 4 5 1 9 -4 9 -6
0 -11 -7 -11 -15 0 -8 -7 -15 -15 -15 -8 0 -15 5 -15 10 0 6 -11 10 -25 10
-17 0 -25 -6 -25 -17 0 -15 -2 -16 -10 -3 -8 13 -10 12 -10 -3 0 -10 -4 -15
-10 -12 -5 3 -7 18 -4 34 4 20 1 30 -10 34 -31 12 -44 -2 -40 -41 5 -42 -19
-81 -51 -86 -27 -4 -38 -68 -19 -105 8 -14 14 -32 14 -38 0 -7 8 -13 18 -13
14 0 15 2 2 10 -11 7 -12 10 -2 10 8 0 27 9 42 20 29 20 29 20 43 0 13 -19 14
-19 65 8 52 27 70 49 32 39 -12 -3 -18 -1 -14 5 4 5 24 8 45 6 31 -3 39 0 39
13 0 11 11 20 28 24 15 3 45 22 67 41 22 20 32 33 23 30 -21 -6 -24 14 -5 33
10 10 9 15 -5 25 -25 18 -22 43 7 62 14 9 22 21 19 26 -4 6 -10 6 -17 -1 -6
-6 -15 -7 -21 -2 -6 5 -27 12 -46 16 -30 7 -33 6 -22 -8z m-64 -161 c-1 -12 3
-15 17 -11 15 5 19 1 19 -19 0 -31 -20 -34 -45 -6 -10 11 -14 20 -10 20 5 0 5
3 2 7 -4 3 -14 -2 -21 -13 -19 -25 -32 -11 -14 15 8 12 18 18 21 14 4 -3 7 -1
7 6 0 7 6 11 13 8 6 -2 11 -12 11 -21z"/>
<path d="M9917 11850 c-3 -13 1 -24 14 -31 21 -11 43 -3 34 12 -4 5 -1 9 4 9
6 0 11 5 11 11 0 5 -8 9 -17 7 -10 -1 -23 1 -29 5 -7 4 -14 -1 -17 -13z"/>
<path d="M10068 11802 c-22 -4 -23 -18 -3 -26 9 -3 18 1 22 10 7 18 3 21 -19
16z"/>
<path d="M9550 11785 c0 -8 5 -15 10 -15 6 0 10 7 10 15 0 8 -4 15 -10 15 -5
0 -10 -7 -10 -15z"/>
<path d="M10360 11740 c0 -5 5 -10 10 -10 6 0 10 5 10 10 0 6 -4 10 -10 10 -5
0 -10 -4 -10 -10z"/>
<path d="M10303 11710 c2 -24 13 -26 21 -4 8 22 8 24 -8 24 -9 0 -14 -9 -13
-20z"/>
<path d="M8681 11664 c0 -11 3 -14 6 -6 3 7 2 16 -1 19 -3 4 -6 -2 -5 -13z"/>
<path d="M9220 11529 c0 -5 5 -7 10 -4 6 3 10 8 10 11 0 2 -4 4 -10 4 -5 0
-10 -5 -10 -11z"/>
<path d="M9700 11470 c0 -5 5 -10 10 -10 6 0 10 5 10 10 0 6 -4 10 -10 10 -5
0 -10 -4 -10 -10z"/>
<path d="M8950 11430 c0 -5 7 -10 15 -10 8 0 15 5 15 10 0 6 -7 10 -15 10 -8
0 -15 -4 -15 -10z"/>
<path d="M12467 11303 c-10 -10 -8 -25 2 -18 6 3 14 -2 19 -11 7 -12 11 -13
16 -5 13 20 -21 51 -37 34z"/>
<path d="M9065 11170 c3 -5 8 -10 11 -10 2 0 4 5 4 10 0 6 -5 10 -11 10 -5 0
-7 -4 -4 -10z"/>
<path d="M9322 11166 c-1 -12 -7 -16 -18 -12 -9 4 -22 2 -28 -3 -6 -5 -22 -11
-36 -13 -20 -2 -24 -8 -22 -28 1 -14 4 -30 7 -37 5 -14 46 -5 44 11 -4 34 1
38 27 21 14 -9 28 -14 30 -12 3 3 4 25 1 48 -2 24 -4 36 -5 25z"/>
<path d="M9176 11154 c-8 -21 -8 -21 9 -28 11 -4 15 1 15 19 0 28 -15 33 -24
9z"/>
<path d="M8690 11010 c0 -5 5 -10 10 -10 6 0 10 5 10 10 0 6 -4 10 -10 10 -5
0 -10 -4 -10 -10z"/>
<path d="M4520 10945 c7 -9 15 -13 17 -11 7 7 -7 26 -19 26 -6 0 -6 -6 2 -15z"/>
<path d="M8460 10915 c-6 -14 -10 -30 -10 -35 0 -5 -8 -14 -17 -19 -13 -7 -14
-13 -7 -18 6 -5 15 -23 19 -41 3 -18 11 -29 16 -26 6 3 8 12 5 19 -3 8 0 15 6
17 13 5 19 116 7 124 -5 3 -14 -7 -19 -21z"/>
<path d="M9135 10859 c-4 -6 -4 -13 -1 -16 8 -8 36 5 36 17 0 13 -27 13 -35
-1z"/>
<path d="M9210 10840 c0 -5 5 -10 10 -10 6 0 10 5 10 10 0 6 -4 10 -10 10 -5
0 -10 -4 -10 -10z"/>
<path d="M8562 10720 c0 -14 2 -19 5 -12 2 6 2 18 0 25 -3 6 -5 1 -5 -13z"/>
<path d="M8300 10636 c0 -9 7 -12 20 -9 11 3 17 9 14 14 -8 14 -34 10 -34 -5z"/>
<path d="M8930 10607 c0 -8 7 -17 15 -21 8 -3 15 -2 15 3 0 5 -7 14 -15 21
-12 10 -15 10 -15 -3z"/>
<path d="M8332 10593 c2 -10 11 -19 21 -21 24 -5 21 15 -4 28 -18 10 -20 9
-17 -7z"/>
<path d="M8340 10545 c-7 -8 -10 -25 -6 -38 6 -26 48 -53 65 -43 12 8 15 27 4
25 -22 -4 -25 3 -7 16 18 14 18 14 -10 15 -23 0 -27 3 -23 20 6 24 -5 26 -23
5z"/>
<path d="M8955 10540 c4 -11 2 -20 -4 -20 -6 0 -11 -12 -11 -26 0 -21 -4 -24
-19 -19 -11 3 -29 0 -40 -7 -18 -11 -23 -10 -35 7 -9 11 -16 15 -16 8 0 -6 -3
-18 -6 -26 -3 -9 2 -16 15 -20 22 -5 22 -26 1 -52 -12 -15 -12 -19 5 -31 10
-8 15 -17 10 -21 -4 -5 -10 -2 -12 5 -7 19 -23 4 -23 -23 0 -13 -6 -26 -12
-28 -8 -4 -7 -6 4 -6 9 -1 18 5 21 12 3 8 13 2 28 -15 26 -29 58 -37 60 -15 4
44 3 54 -3 69 -9 19 7 34 17 18 16 -25 33 11 31 65 -1 45 2 56 17 61 14 4 15
9 7 19 -7 8 -7 16 -2 19 6 3 13 -2 16 -11 5 -12 10 -13 18 -5 8 8 3 18 -18 36
-36 31 -58 34 -49 6z"/>
<path d="M8305 10540 c3 -5 8 -10 11 -10 2 0 4 5 4 10 0 6 -5 10 -11 10 -5 0
-7 -4 -4 -10z"/>
<path d="M9086 10471 c-4 -7 -5 -15 -2 -18 9 -9 19 4 14 18 -4 11 -6 11 -12 0z"/>
<path d="M8495 10390 c-3 -5 -2 -10 4 -10 5 0 13 5 16 10 3 6 2 10 -4 10 -5 0
-13 -4 -16 -10z"/>
<path d="M8853 10223 c-13 -2 -23 -9 -23 -14 0 -14 26 -11 40 6 7 8 11 14 9
14 -2 -1 -14 -4 -26 -6z"/>
<path d="M8840 10120 c0 -5 5 -10 10 -10 6 0 10 5 10 10 0 6 -4 10 -10 10 -5
0 -10 -4 -10 -10z"/>
<path d="M11491 10094 c0 -11 3 -14 6 -6 3 7 2 16 -1 19 -3 4 -6 -2 -5 -13z"/>
<path d="M11467 9863 c-4 -3 -7 -11 -7 -17 0 -6 5 -5 12 2 6 6 9 14 7 17 -3 3
-9 2 -12 -2z"/>
<path d="M8475 9740 c-3 -5 1 -10 9 -10 9 0 16 5 16 10 0 6 -4 10 -9 10 -6 0
-13 -4 -16 -10z"/>
<path d="M8530 9581 c0 -5 9 -11 19 -14 14 -3 18 -1 14 9 -6 15 -33 19 -33 5z"/>
<path d="M11460 9559 c0 -5 5 -7 10 -4 6 3 10 8 10 11 0 2 -4 4 -10 4 -5 0
-10 -5 -10 -11z"/>
<path d="M8556 9373 c-5 -11 16 -24 37 -22 7 0 3 4 -8 9 l-20 9 20 1 c11 2 23
2 28 1 4 0 7 3 7 9 0 13 -59 7 -64 -7z"/>
<path d="M8440 9210 c0 -5 5 -10 11 -10 5 0 7 5 4 10 -3 6 -8 10 -11 10 -2 0
-4 -4 -4 -10z"/>
<path d="M7784 8883 c2 -10 11 -20 20 -21 13 -3 17 2 14 14 -4 25 -37 31 -34
7z"/>
<path d="M7165 8630 c4 -6 11 -8 16 -5 14 9 11 15 -7 15 -8 0 -12 -5 -9 -10z"/>
<path d="M7060 7740 c0 -5 7 -10 15 -10 8 0 15 5 15 10 0 6 -7 10 -15 10 -8 0
-15 -4 -15 -10z"/>
<path d="M7125 7710 c4 -6 11 -8 16 -5 14 9 11 15 -7 15 -8 0 -12 -5 -9 -10z"/>
<path d="M7420 7689 c-18 -15 -33 -19 -60 -15 -19 2 -27 2 -17 0 20 -6 22 -15
5 -32 -9 -9 -7 -12 11 -12 16 0 21 4 17 15 -3 8 0 15 7 15 7 0 25 7 42 16 27
14 30 14 42 -2 10 -14 13 -15 13 -3 0 15 -19 39 -29 39 -4 -1 -17 -10 -31 -21z"/>
<path d="M7010 7646 c0 -9 5 -16 10 -16 6 0 10 4 10 9 0 6 -4 13 -10 16 -5 3
-10 -1 -10 -9z"/>
<path d="M7395 7640 c3 -5 8 -10 11 -10 2 0 4 5 4 10 0 6 -5 10 -11 10 -5 0
-7 -4 -4 -10z"/>
<path d="M6902 7574 c-7 -14 -17 -22 -22 -19 -6 3 -10 1 -10 -5 0 -5 12 -9 28
-8 22 1 27 7 26 25 -1 34 -9 36 -22 7z"/>
<path d="M10752 7566 c1 -10 8 -17 13 -17 15 1 12 24 -3 29 -9 3 -13 -2 -10
-12z"/>
<path d="M10791 7534 c0 -11 3 -14 6 -6 3 7 2 16 -1 19 -3 4 -6 -2 -5 -13z"/>
<path d="M10918 7513 c7 -3 16 -2 19 1 4 3 -2 6 -13 5 -11 0 -14 -3 -6 -6z"/>
<path d="M10680 7490 c0 -5 5 -10 10 -10 6 0 10 5 10 10 0 6 -4 10 -10 10 -5
0 -10 -4 -10 -10z"/>
<path d="M10103 7458 c-9 -20 -8 -24 8 -24 11 0 19 4 19 9 0 4 5 5 10 2 6 -3
10 -1 10 4 0 6 -6 11 -14 11 -8 0 -16 5 -18 11 -2 6 -9 0 -15 -13z"/>
<path d="M5645 6800 c-3 -5 1 -13 10 -16 22 -9 29 1 11 15 -10 8 -16 9 -21 1z"/>
<path d="M5575 5080 c-3 -5 -1 -10 4 -10 6 0 11 5 11 10 0 6 -2 10 -4 10 -3 0
-8 -4 -11 -10z"/>
<path d="M5140 4610 c0 -5 12 -10 26 -10 14 0 23 4 19 10 -3 6 -15 10 -26 10
-10 0 -19 -4 -19 -10z"/>
<path d="M12580 4260 c0 -5 10 -10 23 -10 18 0 19 2 7 10 -19 13 -30 13 -30 0z"/>
<path d="M12660 4251 c43 -13 140 -22 140 -12 0 9 -75 21 -129 20 -32 -1 -33
-2 -11 -8z"/>
<path d="M5393 4156 c0 -8 6 -12 14 -9 7 3 10 9 7 14 -8 14 -21 11 -21 -5z"/>
<path d="M5367 4124 c3 -7 9 -14 14 -14 14 0 10 17 -5 23 -10 4 -13 1 -9 -9z"/>
<path d="M8720 3760 c0 -5 7 -10 16 -10 8 0 12 5 9 10 -3 6 -10 10 -16 10 -5
0 -9 -4 -9 -10z"/>
<path d="M8760 3750 c0 -5 5 -10 11 -10 5 0 7 5 4 10 -3 6 -8 10 -11 10 -2 0
-4 -4 -4 -10z"/>
</g>
</svg>
